<mxfile host="app.diagrams.net" modified="2022-08-10T13:46:13.938Z" agent="5.0 (Windows NT 10.0; Win64; x64) AppleWebKit/537.36 (KHTML, like Gecko) Chrome/104.0.0.0 Safari/537.36" etag="9KRoOkQU87s8nOkJtSwS" version="20.2.3" type="github">
  <diagram id="FpcsDkuiI3JNnGEoyH_6" name="Page-1">
    <mxGraphModel dx="435" dy="1748" grid="1" gridSize="10" guides="1" tooltips="1" connect="1" arrows="0" fold="1" page="1" pageScale="1" pageWidth="1600" pageHeight="900" math="0" shadow="0">
      <root>
        <mxCell id="0" />
        <mxCell id="1" parent="0" />
        <mxCell id="q-zlq_DaqCTvSOnEOWlV-39" style="edgeStyle=orthogonalEdgeStyle;rounded=0;orthogonalLoop=1;jettySize=auto;html=1;exitX=0.5;exitY=1;exitDx=0;exitDy=0;entryX=0.5;entryY=0;entryDx=0;entryDy=0;fontSize=12;" edge="1" parent="1" source="q-zlq_DaqCTvSOnEOWlV-38" target="q-zlq_DaqCTvSOnEOWlV-37">
          <mxGeometry relative="1" as="geometry" />
        </mxCell>
        <mxCell id="q-zlq_DaqCTvSOnEOWlV-38" value="consumer" style="rounded=1;whiteSpace=wrap;html=1;fontSize=12;fillColor=#e1d5e7;strokeColor=#9673a6;" vertex="1" parent="1">
          <mxGeometry x="655" y="-50" width="120" height="60" as="geometry" />
        </mxCell>
        <mxCell id="q-zlq_DaqCTvSOnEOWlV-35" style="edgeStyle=orthogonalEdgeStyle;rounded=0;orthogonalLoop=1;jettySize=auto;html=1;exitX=0.31;exitY=0.8;exitDx=0;exitDy=0;exitPerimeter=0;fontSize=12;" edge="1" parent="1" source="q-zlq_DaqCTvSOnEOWlV-1" target="q-zlq_DaqCTvSOnEOWlV-36">
          <mxGeometry relative="1" as="geometry">
            <mxPoint x="631.3333333333335" y="710" as="targetPoint" />
          </mxGeometry>
        </mxCell>
        <mxCell id="q-zlq_DaqCTvSOnEOWlV-1" value="&lt;font style=&quot;font-size: 28px;&quot;&gt;Fabric&lt;/font&gt;" style="ellipse;shape=cloud;whiteSpace=wrap;html=1;fillColor=#dae8fc;strokeColor=#6c8ebf;" vertex="1" parent="1">
          <mxGeometry x="520" y="280" width="360" height="320" as="geometry" />
        </mxCell>
        <mxCell id="q-zlq_DaqCTvSOnEOWlV-2" value="&lt;font style=&quot;font-size: 12px;&quot;&gt;owner_account&lt;/font&gt;" style="rounded=1;whiteSpace=wrap;html=1;fontSize=28;fillColor=#d5e8d4;strokeColor=#82b366;" vertex="1" parent="1">
          <mxGeometry x="60" y="30" width="120" height="60" as="geometry" />
        </mxCell>
        <mxCell id="q-zlq_DaqCTvSOnEOWlV-3" value="data_timestamp" style="rounded=1;whiteSpace=wrap;html=1;fontSize=12;fillColor=#d5e8d4;strokeColor=#82b366;" vertex="1" parent="1">
          <mxGeometry x="230" y="30" width="120" height="60" as="geometry" />
        </mxCell>
        <mxCell id="q-zlq_DaqCTvSOnEOWlV-4" value="blockName" style="rounded=1;whiteSpace=wrap;html=1;fontSize=12;fillColor=#d5e8d4;strokeColor=#82b366;" vertex="1" parent="1">
          <mxGeometry x="140" y="220" width="120" height="60" as="geometry" />
        </mxCell>
        <mxCell id="q-zlq_DaqCTvSOnEOWlV-5" value="En[data]" style="rounded=1;whiteSpace=wrap;html=1;fontSize=12;fillColor=#d5e8d4;strokeColor=#82b366;" vertex="1" parent="1">
          <mxGeometry x="400" y="30" width="120" height="60" as="geometry" />
        </mxCell>
        <mxCell id="q-zlq_DaqCTvSOnEOWlV-6" value="" style="endArrow=classic;html=1;rounded=0;fontSize=12;" edge="1" parent="1">
          <mxGeometry width="50" height="50" relative="1" as="geometry">
            <mxPoint x="200" y="160" as="sourcePoint" />
            <mxPoint x="200" y="220" as="targetPoint" />
          </mxGeometry>
        </mxCell>
        <mxCell id="q-zlq_DaqCTvSOnEOWlV-7" value="" style="endArrow=none;html=1;rounded=0;fontSize=12;exitX=0.5;exitY=1;exitDx=0;exitDy=0;" edge="1" parent="1" source="q-zlq_DaqCTvSOnEOWlV-2">
          <mxGeometry width="50" height="50" relative="1" as="geometry">
            <mxPoint x="250" y="490" as="sourcePoint" />
            <mxPoint x="120" y="160" as="targetPoint" />
          </mxGeometry>
        </mxCell>
        <mxCell id="q-zlq_DaqCTvSOnEOWlV-8" value="" style="endArrow=none;html=1;rounded=0;fontSize=12;exitX=0.5;exitY=1;exitDx=0;exitDy=0;" edge="1" parent="1">
          <mxGeometry width="50" height="50" relative="1" as="geometry">
            <mxPoint x="289.16999999999996" y="90" as="sourcePoint" />
            <mxPoint x="289.16999999999996" y="160" as="targetPoint" />
          </mxGeometry>
        </mxCell>
        <mxCell id="q-zlq_DaqCTvSOnEOWlV-9" value="" style="endArrow=none;html=1;rounded=0;fontSize=12;exitX=0.5;exitY=1;exitDx=0;exitDy=0;" edge="1" parent="1" source="q-zlq_DaqCTvSOnEOWlV-5">
          <mxGeometry width="50" height="50" relative="1" as="geometry">
            <mxPoint x="140" y="110" as="sourcePoint" />
            <mxPoint x="460" y="160" as="targetPoint" />
          </mxGeometry>
        </mxCell>
        <mxCell id="q-zlq_DaqCTvSOnEOWlV-10" value="" style="endArrow=none;html=1;rounded=0;fontSize=12;" edge="1" parent="1">
          <mxGeometry width="50" height="50" relative="1" as="geometry">
            <mxPoint x="290" y="160" as="sourcePoint" />
            <mxPoint x="120" y="160" as="targetPoint" />
          </mxGeometry>
        </mxCell>
        <mxCell id="q-zlq_DaqCTvSOnEOWlV-11" value="blockHash" style="rounded=1;whiteSpace=wrap;html=1;fontSize=12;fillColor=#d5e8d4;strokeColor=#82b366;" vertex="1" parent="1">
          <mxGeometry x="400" y="220" width="120" height="60" as="geometry" />
        </mxCell>
        <mxCell id="q-zlq_DaqCTvSOnEOWlV-12" value="" style="endArrow=classic;html=1;rounded=0;fontSize=12;entryX=0.5;entryY=0;entryDx=0;entryDy=0;" edge="1" parent="1" target="q-zlq_DaqCTvSOnEOWlV-11">
          <mxGeometry width="50" height="50" relative="1" as="geometry">
            <mxPoint x="460" y="160" as="sourcePoint" />
            <mxPoint x="300" y="440" as="targetPoint" />
          </mxGeometry>
        </mxCell>
        <mxCell id="q-zlq_DaqCTvSOnEOWlV-13" value="" style="endArrow=classic;html=1;rounded=0;fontSize=12;exitX=0.25;exitY=1;exitDx=0;exitDy=0;entryX=0.5;entryY=0;entryDx=0;entryDy=0;" edge="1" parent="1" source="q-zlq_DaqCTvSOnEOWlV-2" target="q-zlq_DaqCTvSOnEOWlV-14">
          <mxGeometry width="50" height="50" relative="1" as="geometry">
            <mxPoint x="90" y="380" as="sourcePoint" />
            <mxPoint x="90" y="200" as="targetPoint" />
          </mxGeometry>
        </mxCell>
        <mxCell id="q-zlq_DaqCTvSOnEOWlV-14" value="owner&lt;br&gt;_address" style="rounded=1;whiteSpace=wrap;html=1;fontSize=12;fillColor=#d5e8d4;strokeColor=#82b366;" vertex="1" parent="1">
          <mxGeometry x="60" y="220" width="60" height="60" as="geometry" />
        </mxCell>
        <mxCell id="q-zlq_DaqCTvSOnEOWlV-15" value="" style="endArrow=none;html=1;rounded=0;fontSize=12;exitX=0.5;exitY=1;exitDx=0;exitDy=0;" edge="1" parent="1" source="q-zlq_DaqCTvSOnEOWlV-14">
          <mxGeometry width="50" height="50" relative="1" as="geometry">
            <mxPoint x="250" y="480" as="sourcePoint" />
            <mxPoint x="90" y="320" as="targetPoint" />
          </mxGeometry>
        </mxCell>
        <mxCell id="q-zlq_DaqCTvSOnEOWlV-16" value="" style="endArrow=none;html=1;rounded=0;fontSize=12;exitX=0.5;exitY=1;exitDx=0;exitDy=0;" edge="1" parent="1">
          <mxGeometry width="50" height="50" relative="1" as="geometry">
            <mxPoint x="199.17000000000002" y="280" as="sourcePoint" />
            <mxPoint x="199.17000000000002" y="320" as="targetPoint" />
          </mxGeometry>
        </mxCell>
        <mxCell id="q-zlq_DaqCTvSOnEOWlV-17" value="" style="endArrow=none;html=1;rounded=0;fontSize=12;exitX=0.5;exitY=1;exitDx=0;exitDy=0;" edge="1" parent="1" source="q-zlq_DaqCTvSOnEOWlV-11">
          <mxGeometry width="50" height="50" relative="1" as="geometry">
            <mxPoint x="110" y="300" as="sourcePoint" />
            <mxPoint x="460" y="320" as="targetPoint" />
          </mxGeometry>
        </mxCell>
        <mxCell id="q-zlq_DaqCTvSOnEOWlV-18" value="" style="endArrow=none;html=1;rounded=0;fontSize=12;" edge="1" parent="1">
          <mxGeometry width="50" height="50" relative="1" as="geometry">
            <mxPoint x="90" y="320" as="sourcePoint" />
            <mxPoint x="460" y="320" as="targetPoint" />
          </mxGeometry>
        </mxCell>
        <mxCell id="q-zlq_DaqCTvSOnEOWlV-19" value="" style="endArrow=none;html=1;rounded=0;fontSize=12;" edge="1" parent="1">
          <mxGeometry width="50" height="50" relative="1" as="geometry">
            <mxPoint x="280" y="360" as="sourcePoint" />
            <mxPoint x="280" y="320" as="targetPoint" />
          </mxGeometry>
        </mxCell>
        <mxCell id="q-zlq_DaqCTvSOnEOWlV-21" style="edgeStyle=orthogonalEdgeStyle;rounded=0;orthogonalLoop=1;jettySize=auto;html=1;exitX=1;exitY=0.5;exitDx=0;exitDy=0;entryX=0.07;entryY=0.4;entryDx=0;entryDy=0;entryPerimeter=0;fontSize=12;" edge="1" parent="1" source="q-zlq_DaqCTvSOnEOWlV-20" target="q-zlq_DaqCTvSOnEOWlV-1">
          <mxGeometry relative="1" as="geometry" />
        </mxCell>
        <mxCell id="q-zlq_DaqCTvSOnEOWlV-20" value="blockAppendix" style="shape=process;whiteSpace=wrap;html=1;backgroundOutline=1;fontSize=12;fillColor=#d5e8d4;strokeColor=#82b366;" vertex="1" parent="1">
          <mxGeometry x="230" y="360" width="120" height="60" as="geometry" />
        </mxCell>
        <mxCell id="q-zlq_DaqCTvSOnEOWlV-34" style="edgeStyle=orthogonalEdgeStyle;rounded=0;orthogonalLoop=1;jettySize=auto;html=1;exitX=1;exitY=0;exitDx=0;exitDy=15;exitPerimeter=0;entryX=0.13;entryY=0.77;entryDx=0;entryDy=0;entryPerimeter=0;fontSize=12;" edge="1" parent="1" source="q-zlq_DaqCTvSOnEOWlV-23" target="q-zlq_DaqCTvSOnEOWlV-1">
          <mxGeometry relative="1" as="geometry">
            <Array as="points">
              <mxPoint x="540" y="710" />
              <mxPoint x="567" y="710" />
            </Array>
          </mxGeometry>
        </mxCell>
        <mxCell id="q-zlq_DaqCTvSOnEOWlV-23" value="closest edge server" style="shape=cylinder3;whiteSpace=wrap;html=1;boundedLbl=1;backgroundOutline=1;size=15;fontSize=12;fillColor=#f8cecc;strokeColor=#b85450;" vertex="1" parent="1">
          <mxGeometry x="480" y="670" width="60" height="80" as="geometry" />
        </mxCell>
        <mxCell id="q-zlq_DaqCTvSOnEOWlV-33" style="edgeStyle=orthogonalEdgeStyle;rounded=0;orthogonalLoop=1;jettySize=auto;html=1;exitX=1;exitY=0.5;exitDx=0;exitDy=0;entryX=0;entryY=0.5;entryDx=0;entryDy=0;entryPerimeter=0;fontSize=12;" edge="1" parent="1" source="q-zlq_DaqCTvSOnEOWlV-28" target="q-zlq_DaqCTvSOnEOWlV-23">
          <mxGeometry relative="1" as="geometry" />
        </mxCell>
        <mxCell id="q-zlq_DaqCTvSOnEOWlV-28" value="dataName" style="shape=process;whiteSpace=wrap;html=1;backgroundOutline=1;fontSize=12;fillColor=#f8cecc;strokeColor=#b85450;" vertex="1" parent="1">
          <mxGeometry x="270" y="680" width="120" height="60" as="geometry" />
        </mxCell>
        <mxCell id="q-zlq_DaqCTvSOnEOWlV-29" value="dataRequest" style="rounded=1;whiteSpace=wrap;html=1;fontSize=12;fillColor=#f8cecc;strokeColor=#b85450;" vertex="1" parent="1">
          <mxGeometry x="90" y="620" width="120" height="60" as="geometry" />
        </mxCell>
        <mxCell id="q-zlq_DaqCTvSOnEOWlV-30" value="data_info" style="rounded=1;whiteSpace=wrap;html=1;fontSize=12;fillColor=#f8cecc;strokeColor=#b85450;" vertex="1" parent="1">
          <mxGeometry x="90" y="740" width="120" height="60" as="geometry" />
        </mxCell>
        <mxCell id="q-zlq_DaqCTvSOnEOWlV-31" value="" style="endArrow=none;html=1;rounded=0;fontSize=12;exitX=0.5;exitY=1;exitDx=0;exitDy=0;" edge="1" parent="1" source="q-zlq_DaqCTvSOnEOWlV-29" target="q-zlq_DaqCTvSOnEOWlV-30">
          <mxGeometry width="50" height="50" relative="1" as="geometry">
            <mxPoint x="230" y="480" as="sourcePoint" />
            <mxPoint x="280" y="430" as="targetPoint" />
          </mxGeometry>
        </mxCell>
        <mxCell id="q-zlq_DaqCTvSOnEOWlV-32" value="" style="endArrow=classic;html=1;rounded=0;fontSize=12;entryX=0;entryY=0.5;entryDx=0;entryDy=0;" edge="1" parent="1" target="q-zlq_DaqCTvSOnEOWlV-28">
          <mxGeometry width="50" height="50" relative="1" as="geometry">
            <mxPoint x="150" y="710" as="sourcePoint" />
            <mxPoint x="280" y="430" as="targetPoint" />
          </mxGeometry>
        </mxCell>
        <mxCell id="q-zlq_DaqCTvSOnEOWlV-36" value="dataOwnerAddress" style="shape=process;whiteSpace=wrap;html=1;backgroundOutline=1;fontSize=12;fillColor=#f8cecc;strokeColor=#b85450;" vertex="1" parent="1">
          <mxGeometry x="610" y="680" width="140" height="60" as="geometry" />
        </mxCell>
        <mxCell id="q-zlq_DaqCTvSOnEOWlV-40" style="edgeStyle=orthogonalEdgeStyle;rounded=0;orthogonalLoop=1;jettySize=auto;html=1;exitX=0;exitY=0.5;exitDx=0;exitDy=0;fontSize=12;entryX=0.5;entryY=0;entryDx=0;entryDy=0;" edge="1" parent="1" source="q-zlq_DaqCTvSOnEOWlV-37" target="q-zlq_DaqCTvSOnEOWlV-42">
          <mxGeometry relative="1" as="geometry">
            <mxPoint x="640.0769230769229" y="170" as="targetPoint" />
          </mxGeometry>
        </mxCell>
        <mxCell id="q-zlq_DaqCTvSOnEOWlV-44" style="edgeStyle=orthogonalEdgeStyle;rounded=0;orthogonalLoop=1;jettySize=auto;html=1;exitX=1;exitY=0.5;exitDx=0;exitDy=0;fontSize=12;" edge="1" parent="1" source="q-zlq_DaqCTvSOnEOWlV-37" target="q-zlq_DaqCTvSOnEOWlV-45">
          <mxGeometry relative="1" as="geometry">
            <mxPoint x="800" y="200" as="targetPoint" />
          </mxGeometry>
        </mxCell>
        <mxCell id="q-zlq_DaqCTvSOnEOWlV-37" value="dataOwner&lt;br&gt;blockPermission" style="rhombus;whiteSpace=wrap;html=1;fontSize=12;fillColor=#e1d5e7;strokeColor=#9673a6;" vertex="1" parent="1">
          <mxGeometry x="660" y="60" width="110" height="120" as="geometry" />
        </mxCell>
        <mxCell id="q-zlq_DaqCTvSOnEOWlV-47" style="edgeStyle=orthogonalEdgeStyle;rounded=0;orthogonalLoop=1;jettySize=auto;html=1;exitX=0.5;exitY=1;exitDx=0;exitDy=0;entryX=0.4;entryY=0.1;entryDx=0;entryDy=0;entryPerimeter=0;fontSize=12;" edge="1" parent="1" source="q-zlq_DaqCTvSOnEOWlV-42" target="q-zlq_DaqCTvSOnEOWlV-1">
          <mxGeometry relative="1" as="geometry" />
        </mxCell>
        <mxCell id="q-zlq_DaqCTvSOnEOWlV-42" value="acceptList" style="shape=process;whiteSpace=wrap;html=1;backgroundOutline=1;fontSize=12;fillColor=#e1d5e7;strokeColor=#9673a6;" vertex="1" parent="1">
          <mxGeometry x="590" y="200" width="90" height="60" as="geometry" />
        </mxCell>
        <mxCell id="q-zlq_DaqCTvSOnEOWlV-43" value="Accept" style="text;html=1;align=center;verticalAlign=middle;resizable=0;points=[];autosize=1;strokeColor=none;fillColor=none;fontSize=12;" vertex="1" parent="1">
          <mxGeometry x="580" y="150" width="60" height="30" as="geometry" />
        </mxCell>
        <mxCell id="q-zlq_DaqCTvSOnEOWlV-49" style="edgeStyle=orthogonalEdgeStyle;rounded=0;orthogonalLoop=1;jettySize=auto;html=1;entryX=0.79;entryY=0.183;entryDx=0;entryDy=0;entryPerimeter=0;fontSize=12;" edge="1" parent="1" source="q-zlq_DaqCTvSOnEOWlV-45" target="q-zlq_DaqCTvSOnEOWlV-1">
          <mxGeometry relative="1" as="geometry" />
        </mxCell>
        <mxCell id="q-zlq_DaqCTvSOnEOWlV-45" value="rejectList" style="shape=process;whiteSpace=wrap;html=1;backgroundOutline=1;fontSize=12;fillColor=#e1d5e7;strokeColor=#9673a6;" vertex="1" parent="1">
          <mxGeometry x="760" y="200" width="90" height="60" as="geometry" />
        </mxCell>
        <mxCell id="q-zlq_DaqCTvSOnEOWlV-46" value="Reject" style="text;html=1;align=center;verticalAlign=middle;resizable=0;points=[];autosize=1;strokeColor=none;fillColor=none;fontSize=12;" vertex="1" parent="1">
          <mxGeometry x="800" y="150" width="60" height="30" as="geometry" />
        </mxCell>
        <mxCell id="q-zlq_DaqCTvSOnEOWlV-53" style="edgeStyle=orthogonalEdgeStyle;rounded=0;orthogonalLoop=1;jettySize=auto;html=1;exitX=0.5;exitY=0;exitDx=0;exitDy=0;entryX=0.5;entryY=1;entryDx=0;entryDy=0;fontSize=12;" edge="1" parent="1" source="q-zlq_DaqCTvSOnEOWlV-50" target="q-zlq_DaqCTvSOnEOWlV-52">
          <mxGeometry relative="1" as="geometry" />
        </mxCell>
        <mxCell id="q-zlq_DaqCTvSOnEOWlV-50" value="dataRequest" style="rounded=1;whiteSpace=wrap;html=1;fontSize=12;fillColor=#ffe6cc;strokeColor=#d79b00;" vertex="1" parent="1">
          <mxGeometry x="890" y="740" width="120" height="60" as="geometry" />
        </mxCell>
        <mxCell id="q-zlq_DaqCTvSOnEOWlV-55" style="edgeStyle=orthogonalEdgeStyle;rounded=0;orthogonalLoop=1;jettySize=auto;html=1;exitX=0.5;exitY=0;exitDx=0;exitDy=0;entryX=0.5;entryY=1;entryDx=0;entryDy=0;fontSize=12;" edge="1" parent="1" source="q-zlq_DaqCTvSOnEOWlV-52" target="q-zlq_DaqCTvSOnEOWlV-54">
          <mxGeometry relative="1" as="geometry" />
        </mxCell>
        <mxCell id="q-zlq_DaqCTvSOnEOWlV-52" value="requester address" style="rounded=1;whiteSpace=wrap;html=1;fontSize=12;fillColor=#ffe6cc;strokeColor=#d79b00;" vertex="1" parent="1">
          <mxGeometry x="890" y="640" width="120" height="60" as="geometry" />
        </mxCell>
        <mxCell id="q-zlq_DaqCTvSOnEOWlV-56" style="edgeStyle=orthogonalEdgeStyle;rounded=0;orthogonalLoop=1;jettySize=auto;html=1;exitX=0.5;exitY=0;exitDx=0;exitDy=0;fontSize=12;" edge="1" parent="1" source="q-zlq_DaqCTvSOnEOWlV-54" target="q-zlq_DaqCTvSOnEOWlV-1">
          <mxGeometry relative="1" as="geometry" />
        </mxCell>
        <mxCell id="q-zlq_DaqCTvSOnEOWlV-54" value="in&lt;br&gt;accept&lt;br&gt;list?" style="rhombus;whiteSpace=wrap;html=1;fontSize=12;fillColor=#ffe6cc;strokeColor=#d79b00;" vertex="1" parent="1">
          <mxGeometry x="910" y="510" width="80" height="80" as="geometry" />
        </mxCell>
        <mxCell id="q-zlq_DaqCTvSOnEOWlV-57" value="yes" style="text;html=1;align=center;verticalAlign=middle;resizable=0;points=[];autosize=1;strokeColor=none;fillColor=none;fontSize=12;" vertex="1" parent="1">
          <mxGeometry x="960" y="465" width="40" height="30" as="geometry" />
        </mxCell>
      </root>
    </mxGraphModel>
  </diagram>
</mxfile>
